<svg id="Layer_1" data-name="Layer 1" xmlns="http://www.w3.org/2000/svg" viewBox="0 0 3409.84 572.81"><defs><style>.cls-1{fill:#252021;}.cls-2{fill:red;}.cls-2,.cls-3{fill-rule:evenodd;}.cls-3,.cls-4{fill:#fff;}</style></defs><title>dawlance-light</title><path class="cls-1" d="M94,276.12l1.18,1.17Z" transform="translate(-15.67 -18.6)"/><path class="cls-1" d="M95.5,277.6l1.19,1.18Z" transform="translate(-15.67 -18.6)"/><path class="cls-1" d="M97,279.1l1.18,1.16Z" transform="translate(-15.67 -18.6)"/><path class="cls-1" d="M98.53,280.6l1.14,1.13Z" transform="translate(-15.67 -18.6)"/><path class="cls-2" d="M142.44,131.86H530c193.73,48.81,193.73,300.24,0,343H15.67V385.93H490.85c144.92-5.43,151.15-166.27,0-174.21H228.46v154.1h-86v-234ZM15.67,18.6H587.58c285.94,72,285.94,499.84,0,563H15.67V495H547c220.95-48.77,220.95-336.63,0-392.29H105V365.82H15.67V18.6Z" transform="translate(-15.67 -18.6)"/><path class="cls-3" d="M860.75,586.21l4.11-19.51,4.62-.65a32.88,32.88,0,0,0,10.28-.33A61.15,61.15,0,0,0,890,562.8a37.26,37.26,0,0,0,10-5.86,41.69,41.69,0,0,0,9-10.4,60.15,60.15,0,0,0,3.59-6.51,72.07,72.07,0,0,0,3.09-7.8q1.53-3.9,3.08-8.45a91.33,91.33,0,0,0,2.57-9.11,15.06,15.06,0,0,0,.77-2.6c.17-.87.43-2,.77-3.25a12.67,12.67,0,0,1,.26-2.6,14,14,0,0,1,.77-2.6,13.57,13.57,0,0,1,.25-2.61c.17-.86.43-1.95.77-3.25a14,14,0,0,0,.77-2.6,12.74,12.74,0,0,0,.26-2.6l1-3.9.51-3.25,50.86-240,1-3.9v-.65a2.08,2.08,0,0,1,.51-1.3v-2q3.09-15,4.63-27a178.63,178.63,0,0,0,1.54-22.44,20.58,20.58,0,0,0-7.71-15.61q-7.18-5.85-21.57-7.8l-6.68-1.95,4.11-19.51h172.61a67.32,67.32,0,0,0,11.05,1.62c3.59.22,7.28.33,11,.33s7.62.11,11.56.32,8,.54,12.07,1q13.37,1.95,26.21,4.88a228.05,228.05,0,0,1,25.68,7.48,102.68,102.68,0,0,1,23.12,12,150,150,0,0,1,20.55,17.23,123.18,123.18,0,0,1,19,29.92A170,170,0,0,1,1299,255.84a253.13,253.13,0,0,1,4.88,41.62,287.14,287.14,0,0,1-1.79,43.57c-.35,2.6-.6,5.09-.77,7.48a29.91,29.91,0,0,1-1.29,6.83c-.34,1.3-.6,2.49-.77,3.57a19.2,19.2,0,0,0-.26,2.93,36.56,36.56,0,0,0-.77,3.58c-.17,1.08-.43,2.27-.77,3.57l-.51,2-.51,1.95a350.21,350.21,0,0,1-14.9,49.42,317.77,317.77,0,0,1-22.61,46.83,256.18,256.18,0,0,1-28.77,41.29,248.39,248.39,0,0,1-34.93,33.5q-9.26,7.15-18.5,13t-18,10.41a132.61,132.61,0,0,1-18.49,7.48q-9.26,2.92-18.5,4.88-12.33,2.6-24.4,4.22t-23.89,2.28H860.75Zm191.11-348.58L997.4,494.51a17.2,17.2,0,0,1-.26,3.25,14,14,0,0,1-.77,2.6c-.34,1.31-.6,2.39-.77,3.26a13.4,13.4,0,0,0-.25,2.6,13.23,13.23,0,0,0-.77,2.92,18,18,0,0,0-.26,2.93,14.26,14.26,0,0,0-.52,3.58v2.92a55.63,55.63,0,0,0-1.28,8.46,39.16,39.16,0,0,0,.26,7.8,72.49,72.49,0,0,0,1.28,7.16,10.29,10.29,0,0,0,2.83,5.2,12.41,12.41,0,0,0,4.11,4.23,31.32,31.32,0,0,0,6.16,2.92,77.83,77.83,0,0,0,7.45,2.28q3.85,1,8,1.62a19.6,19.6,0,0,0,2.83,1,9.37,9.37,0,0,0,2.31.33,4.28,4.28,0,0,0,2.31.65h2.83q34.94-1.31,64-14.31T1149,507.52q24.15-26.67,41.1-62.76t26.72-81.62a7.07,7.07,0,0,0,.51-2.6,7.07,7.07,0,0,1,.51-2.6q.53-3.26,1-6.18c.34-1.95.69-4,1-6.18a88.71,88.71,0,0,0,1.54-8.78q.51-4.21,1-8.78,1.53-15,1.79-30.24t-.77-29.59a146.21,146.21,0,0,0-5.39-27.64,104.9,104.9,0,0,0-10-23.08,79.1,79.1,0,0,0-13.36-17.24,81.87,81.87,0,0,0-17-12.68,185.64,185.64,0,0,0-19.78-9.11,112.25,112.25,0,0,0-20.8-5.85,20.12,20.12,0,0,0-4.88-.65,14.48,14.48,0,0,1-4.37-.65,9.74,9.74,0,0,1-2.31-.32,9.43,9.43,0,0,0-2.31-.33h-5.14q-3.6,0-7.19.33c-2.4.21-5,.54-7.71,1a52.72,52.72,0,0,0-10,2.28q-4.87,1.62-9.5,3.57a46,46,0,0,0-8,4.23,26.47,26.47,0,0,0-5.91,5.53,31.88,31.88,0,0,0-3.09,4.88,71.15,71.15,0,0,0-3.08,6.83l-3.08,7.8a69.67,69.67,0,0,0-2.57,7.8c-.68,2.17-1.37,4.34-2,6.51s-1.37,4.33-2.06,6.5a18,18,0,0,1-.26,2.93,13.23,13.23,0,0,1-.77,2.92,21.16,21.16,0,0,0-.77,2.28,9.09,9.09,0,0,0-.25,2.28v-.65Z" transform="translate(-15.67 -18.6)"/><path class="cls-3" d="M1424.8,450.67q-8,4.29-15.75,9.37A75.39,75.39,0,0,0,1388,480.53a73.76,73.76,0,0,0-11.31,27.64q-2.57,12.36-1,22.11a38.81,38.81,0,0,0,6.68,16.91,54.48,54.48,0,0,0,9.24,8.13,30.81,30.81,0,0,0,11.3,4.88,79.29,79.29,0,0,0,15.93-4.56,140.53,140.53,0,0,0,16.44-7.8q11.31-7.15,21.83-14.63t20.3-15.94V516l14.13-65.3h70l-9.15,43.19a62.91,62.91,0,0,1-1.28,6.18,62.87,62.87,0,0,0-1.29,6.18,14.81,14.81,0,0,0-.77,2.6,13.47,13.47,0,0,0-.25,2.6v1.95a5.59,5.59,0,0,1-.26,2,5.67,5.67,0,0,0-.26,1.95,138.58,138.58,0,0,0-1,16.59,72.27,72.27,0,0,0,1.55,15.28,24.57,24.57,0,0,0,2.82,7.48,11.09,11.09,0,0,0,4.37,4.23h.51a42.75,42.75,0,0,0,6.17-3.26c2-1.3,3.94-2.6,5.65-3.9v-1.3h20.55L1595,569.3a34.61,34.61,0,0,1-5.39,5.53,64.78,64.78,0,0,1-5.91,4.23,15.73,15.73,0,0,1-2.83,2c-.85.43-1.79.86-2.82,1.3a42.51,42.51,0,0,1-9.25,3.9l-9.25,2.6a47.88,47.88,0,0,1-4.88,1,45.65,45.65,0,0,0-4.88,1h-2.31a4.26,4.26,0,0,0-2.31.65h-27.74a75.19,75.19,0,0,1-17.47-3.25,56.72,56.72,0,0,1-14.9-7.15,29,29,0,0,1-7.19-8.78,65.21,65.21,0,0,1-5.14-12l-.25.32-.26.33a.91.91,0,0,0-.77.32l-.26.33a189.27,189.27,0,0,1-21.06,13.33,173.75,173.75,0,0,1-20.55,9.43,193.81,193.81,0,0,1-21.58,5.2,126.84,126.84,0,0,1-22.6,1.95h-24.15a3.51,3.51,0,0,0-1.8-.65h-5.39a3.54,3.54,0,0,0-1.8-.65h-1.8a69.64,69.64,0,0,1-21.06-7.15,66.24,66.24,0,0,1-18-14.31,42.23,42.23,0,0,1-10.27-22.44q-2.06-13.32,1.54-30.24a128.88,128.88,0,0,1,9.76-29.59,69.11,69.11,0,0,1,15.41-21.13,127.63,127.63,0,0,1,16.71-14.59Z" transform="translate(-15.67 -18.6)"/><path class="cls-3" d="M1344.59,450.67c.93-.68,1.86-1.35,2.81-2a225.32,225.32,0,0,1,23.12-14,37.57,37.57,0,0,1,6.42-3.25q3.35-1.31,6.42-2.6A95.12,95.12,0,0,1,1396,423.3q6.42-2.28,13.1-4.23,4.62-1.31,9.5-2.6t9.51-2.6a83.15,83.15,0,0,0,9.5-1.95,79.2,79.2,0,0,1,9.51-1.95h2a3.86,3.86,0,0,0,2.06-.65h4.11a18.47,18.47,0,0,0,3.33-.33,32.52,32.52,0,0,0,3.86-1l39.56-6.51,9.76-46.82a112.33,112.33,0,0,0,1.28-13q.26-6.49.26-13a39,39,0,0,0-2.83-12,35.36,35.36,0,0,0-6.42-10.08,22.72,22.72,0,0,0-5.65-5.2,30.36,30.36,0,0,0-7.19-3.25q-3.6-1.31-7.19-2.28a72.54,72.54,0,0,0-7.71-1.62h-5.14a42.25,42.25,0,0,1-5.39,1,21.53,21.53,0,0,0-5.91,1.63,27.49,27.49,0,0,0-5.91,1.95q-2.82,1.29-5.39,2.6c-1.72.87-3.51,1.84-5.4,2.93s-3.85,2.27-5.9,3.57a33.67,33.67,0,0,0-8.23,8.78,38.32,38.32,0,0,0-4.62,10.73l-1.54,7.16a111.33,111.33,0,0,1-4.88,16.26,62.4,62.4,0,0,1-6.94,13,24.51,24.51,0,0,1-9.76,8.46,30.39,30.39,0,0,1-12.84,2.6L1368,374.2a14.06,14.06,0,0,1-8.48-1.3,20.87,20.87,0,0,1-6.93-5.86,17,17,0,0,1-3.6-9.1,35.85,35.85,0,0,1,1-11.71,63.24,63.24,0,0,1,5.39-15.61,71.35,71.35,0,0,1,10-14.95,129.68,129.68,0,0,1,12.85-13,111.8,111.8,0,0,1,13.87-10.41,10.26,10.26,0,0,1,2.56-2.27,21.93,21.93,0,0,1,3.09-1.63,11.76,11.76,0,0,1,1.8-1,13.44,13.44,0,0,0,1.79-1,3.59,3.59,0,0,0,1.29-.32,14.13,14.13,0,0,0,1.8-1,107,107,0,0,1,10.27-4.55q5.15-1.95,10.79-3.9t11.56-3.58q5.91-1.62,11.56-2.93a37.1,37.1,0,0,1,8.47-1.62,76.16,76.16,0,0,0,8-1,27.1,27.1,0,0,0,4.11-.32,25.88,25.88,0,0,1,4.11-.33,9.2,9.2,0,0,1,3.59-.65H1481l20.55-.65h2.06a3.83,3.83,0,0,0,2.05.65h2.06a13.67,13.67,0,0,0,4.11.65,13.67,13.67,0,0,1,4.11.65,14.73,14.73,0,0,1,3.08.33,37.18,37.18,0,0,1,3.6,1,14.73,14.73,0,0,1,3.08.33,16.6,16.6,0,0,1,3.08,1,80.78,80.78,0,0,1,10,3.25q4.88,2,10,3.91a32.44,32.44,0,0,1,5.9,3.25,48,48,0,0,0,5.4,3.25,15,15,0,0,0,2.82,1.95,14.75,14.75,0,0,1,2.83,1.95,53.72,53.72,0,0,1,13.36,15.61,42.1,42.1,0,0,1,5.13,18.21,188.49,188.49,0,0,1-1.28,21.14q-1.29,11.37-3.85,25l-17.57,83h-70l4.88-22.49a1.42,1.42,0,0,1-1,.65h-1a1.39,1.39,0,0,1-1,.65h-1a121.36,121.36,0,0,0-14.13,2.27q-7.45,1.63-14.64,3.58a184.08,184.08,0,0,0-28,10.08q-5.41,2.46-10.71,5.28l-80.21,0Z" transform="translate(-15.67 -18.6)"/><path class="cls-4" d="M1894.06,488.66l65.25-125.52a35.62,35.62,0,0,0,4.37-7.15,88.82,88.82,0,0,0,3.34-8.46q1.53-3.9,3.08-8.45a43.3,43.3,0,0,0,2.05-9.11q2.58-10.39,1-17.56a22.71,22.71,0,0,0-6.16-11.7,35.94,35.94,0,0,0-10.79-6.18,38.21,38.21,0,0,0-13.36-2.28l4.11-20.81h134.08L2077,291a86.24,86.24,0,0,0-22.61,9.43,64.29,64.29,0,0,0-17.47,15.29q-7.19,9.1-14.38,19.83a236.82,236.82,0,0,0-13.87,23.74l-1.54,1.95-1,2.6L1890,586.21h-54l-9.76-153.48L1742,586.21h-55l-16.44-244.53a115.27,115.27,0,0,0-3.34-17.56,158,158,0,0,0-5.39-16.26,22.74,22.74,0,0,0-10-11.05q-6.94-3.9-17.73-4.56l3.6-20.81H1781L1776.93,291l-1,.65h-4.63q-5.13,1.31-10,2.28a38.53,38.53,0,0,0-9,2.93,18,18,0,0,0-6.93,5.85q-2.83,3.9-4.37,11.06a14.81,14.81,0,0,0-.77,2.6,13.41,13.41,0,0,0-.26,2.6v1.95a3.53,3.53,0,0,1-.25,1.3,3.54,3.54,0,0,0-.26,1.3,26.82,26.82,0,0,0,0,10.41v4.87a16.68,16.68,0,0,0,.51,4.23l10.28,150.23,70.89-131.37-1.54-11.7c-.34-1.31-.68-2.82-1-4.56a26.2,26.2,0,0,1-.52-5.2,12.74,12.74,0,0,0-.26-2.6,13.55,13.55,0,0,1-.25-2.6,11.12,11.12,0,0,0-.26-1.95,13.59,13.59,0,0,1-.26-2.61,83.21,83.21,0,0,0-3.08-14.3,58.67,58.67,0,0,0-4.62-11.06,24.44,24.44,0,0,0-9.51-7.8,64,64,0,0,0-16.18-5.21l4.11-20.81h136.66L1920.27,291l-1,.65a1.37,1.37,0,0,1-1,.65h-1a1.38,1.38,0,0,1-1,.66h-1l-3.08-.66c-3.09.87-5.91,1.63-8.48,2.28a32.15,32.15,0,0,0-7.45,2.93,16.5,16.5,0,0,0-6.16,6.18,28.49,28.49,0,0,0-3.6,10.08,14.81,14.81,0,0,0-.77,2.6,13.41,13.41,0,0,0-.26,2.6v1.95a3.53,3.53,0,0,1-.25,1.3,3.35,3.35,0,0,0-.26,1.3,15.37,15.37,0,0,0-.52,3.9v7.16a5.67,5.67,0,0,0,.26,2,5.59,5.59,0,0,1,.26,1.95v3.9l9.24,146.33Z" transform="translate(-15.67 -18.6)"/><path class="cls-4" d="M2220.06,119.91l-81.18,383.71a220.6,220.6,0,0,0-4.1,25,95.18,95.18,0,0,0,0,19.84,17.53,17.53,0,0,0,7.7,13q6.67,4.54,18.5,5.85l6.16-.65L2163,586.21H2007.88L2012,566.7h4.63a56.8,56.8,0,0,0,21.32-4.88,33.62,33.62,0,0,0,14.12-12,91.09,91.09,0,0,0,9.25-19.19,198.94,198.94,0,0,0,7.19-25.68L2124,242.83l1-3.9v-.65a2.1,2.1,0,0,1,.52-1.3v-2q3.07-15,4.62-27a176.88,176.88,0,0,0,1.54-22.44A20.6,20.6,0,0,0,2124,170q-7.2-5.85-21.58-7.15l-6.68-2,4.11-19.52q9.26-.65,19.27-2.27a199.6,199.6,0,0,0,19.77-4.23,139.83,139.83,0,0,0,19.78-5.53q10-3.57,19.78-8.13l21.07-1.3Z" transform="translate(-15.67 -18.6)"/><path class="cls-3" d="M2318.66,450.67q-8,4.29-15.75,9.37a75.39,75.39,0,0,0-21.06,20.49,73.59,73.59,0,0,0-11.3,27.64q-2.57,12.36-1,22.11a38.93,38.93,0,0,0,6.68,16.91,54.17,54.17,0,0,0,9.25,8.13,30.74,30.74,0,0,0,11.3,4.88,79.48,79.48,0,0,0,15.93-4.56,141.18,141.18,0,0,0,16.43-7.8q11.31-7.15,21.84-14.63t20.29-15.94V516l14.14-65.3h70l-9.14,43.19A62.87,62.87,0,0,1,2445,500a62.91,62.91,0,0,0-1.28,6.18,14.81,14.81,0,0,0-.77,2.6,13.49,13.49,0,0,0-.26,2.6v1.95a5.59,5.59,0,0,1-.26,2,5.71,5.71,0,0,0-.25,1.95,136.54,136.54,0,0,0-1,16.59,72.28,72.28,0,0,0,1.54,15.28,24.83,24.83,0,0,0,2.83,7.48,11,11,0,0,0,4.36,4.23h.52a42.65,42.65,0,0,0,6.16-3.26q3.09-2,5.65-3.9v-1.3h20.55l6.17,16.91a34.66,34.66,0,0,1-5.4,5.53,62.12,62.12,0,0,1-5.91,4.23,15.35,15.35,0,0,1-2.82,2c-.86.43-1.8.86-2.83,1.3a42.44,42.44,0,0,1-9.24,3.9l-9.25,2.6a47.88,47.88,0,0,1-4.88,1,45.17,45.17,0,0,0-4.88,1h-2.31a4.29,4.29,0,0,0-2.32.65h-27.74a75.39,75.39,0,0,1-17.47-3.25A56.66,56.66,0,0,1,2379,581a29.18,29.18,0,0,1-7.2-8.78,65.18,65.18,0,0,1-5.13-12s-.09.1-.26.32l-.26.33a.91.91,0,0,0-.77.32l-.25.33A190.28,190.28,0,0,1,2344,574.83a173.75,173.75,0,0,1-20.55,9.43,194.18,194.18,0,0,1-21.57,5.2,127,127,0,0,1-22.61,1.95h-24.14a3.57,3.57,0,0,0-1.8-.65h-5.4a3.51,3.51,0,0,0-1.79-.65h-1.8a69.61,69.61,0,0,1-21.07-7.15,66.2,66.2,0,0,1-18-14.31A42.17,42.17,0,0,1,2195,546.21q-2.06-13.32,1.54-30.24a129.36,129.36,0,0,1,9.76-29.59,69.27,69.27,0,0,1,15.41-21.13,127.72,127.72,0,0,1,16.72-14.59Z" transform="translate(-15.67 -18.6)"/><path class="cls-3" d="M2238.46,450.67c.92-.68,1.86-1.35,2.81-2a224.25,224.25,0,0,1,23.12-14,37.21,37.21,0,0,1,6.42-3.25q3.33-1.31,6.42-2.6a95,95,0,0,1,12.58-5.53q6.42-2.28,13.1-4.23c3.09-.87,6.25-1.73,9.51-2.6s6.42-1.73,9.5-2.6a83.74,83.74,0,0,0,9.51-1.95,79,79,0,0,1,9.5-1.95H2343a3.83,3.83,0,0,0,2.05-.65h4.11a18.57,18.57,0,0,0,3.34-.33,32.39,32.39,0,0,0,3.85-1l39.56-6.51,9.76-46.82a112.36,112.36,0,0,0,1.29-13q.26-6.49.25-13a39,39,0,0,0-2.82-12,35.18,35.18,0,0,0-6.43-10.08,22.55,22.55,0,0,0-5.65-5.2,30.36,30.36,0,0,0-7.19-3.25c-2.4-.87-4.79-1.63-7.19-2.28a72.54,72.54,0,0,0-7.71-1.62h-5.13a42.41,42.41,0,0,1-5.4,1,21.72,21.72,0,0,0-5.91,1.63,27.41,27.41,0,0,0-5.9,1.95q-2.84,1.29-5.4,2.6c-1.71.87-3.51,1.84-5.39,2.93s-3.86,2.27-5.91,3.57a33.46,33.46,0,0,0-8.22,8.78,37.75,37.75,0,0,0-4.62,10.73l-1.54,7.16a110.07,110.07,0,0,1-4.89,16.26,62.38,62.38,0,0,1-6.93,13,24.51,24.51,0,0,1-9.76,8.46,30.47,30.47,0,0,1-12.85,2.6l-20.55-.65a14,14,0,0,1-8.47-1.3,20.9,20.9,0,0,1-6.94-5.86,17.06,17.06,0,0,1-3.59-9.1,35.82,35.82,0,0,1,1-11.71,62.87,62.87,0,0,1,5.4-15.61,71.35,71.35,0,0,1,10-14.95,130.68,130.68,0,0,1,12.84-13A112.55,112.55,0,0,1,2286,292.25a10.31,10.31,0,0,1,2.57-2.27,21.83,21.83,0,0,1,3.08-1.63,12.77,12.77,0,0,1,1.8-1,14.13,14.13,0,0,0,1.8-1,3.55,3.55,0,0,0,1.28-.32,12.89,12.89,0,0,0,1.8-1,107.2,107.2,0,0,1,10.28-4.55q5.13-1.95,10.78-3.9t11.56-3.58q5.91-1.62,11.56-2.93a37.19,37.19,0,0,1,8.48-1.62,76.29,76.29,0,0,0,8-1,27.1,27.1,0,0,0,4.11-.32,25.88,25.88,0,0,1,4.11-.33,9.29,9.29,0,0,1,3.6-.65h4.11l20.55-.65h2.05a3.86,3.86,0,0,0,2.06.65h2.05a13.67,13.67,0,0,0,4.11.65,13.67,13.67,0,0,1,4.11.65,14.59,14.59,0,0,1,3.08.33,37.18,37.18,0,0,1,3.6,1,14.59,14.59,0,0,1,3.08.33,16.37,16.37,0,0,1,3.08,1,79.71,79.71,0,0,1,10,3.25c3.26,1.31,6.59,2.61,10,3.91a32.52,32.52,0,0,1,5.91,3.25,47,47,0,0,0,5.39,3.25,14.75,14.75,0,0,0,2.83,1.95,14.72,14.72,0,0,1,2.82,1.95A53.41,53.41,0,0,1,2473,303.31a42.11,42.11,0,0,1,5.14,18.21,188.63,188.63,0,0,1-1.29,21.14q-1.28,11.37-3.85,25l-17.57,83h-70l4.87-22.49a1.4,1.4,0,0,1-1,.65h-1a1.39,1.39,0,0,1-1,.65h-1a122,122,0,0,0-14.13,2.27q-7.46,1.63-14.64,3.58a184.47,184.47,0,0,0-28,10.08q-5.41,2.46-10.71,5.28l-80.2,0Z" transform="translate(-15.67 -18.6)"/><path class="cls-3" d="M2833.65,359.24l-30.82,145a241.82,241.82,0,0,0-3.34,25,108.18,108.18,0,0,0,.25,19.84,17.33,17.33,0,0,0,8,13q6.93,4.54,18.24,5.85l-20.55-.65,7.19-.65h20.55L2829,586.21H2671.82l4.12-19.51h7.19q11.8,0,20.29-4.55a35.19,35.19,0,0,0,13.61-13,113.91,113.91,0,0,0,9.25-19.51,151.08,151.08,0,0,0,6.68-24.71l28.77-135.27q.51-2.61,1-5.53t1-6.18a49.39,49.39,0,0,0,.77-5.85,54.14,54.14,0,0,1,.77-5.86,53.26,53.26,0,0,0-.25-11.7c-.52-3.91-1.11-7.59-1.8-11.06a46.94,46.94,0,0,0-4.11-9.75,19.79,19.79,0,0,0-6.68-7.16l-2.05-1.3-2.06-1.3a21.69,21.69,0,0,1-3.85-1.62,18.42,18.42,0,0,0-4.37-1.63,91.17,91.17,0,0,0-19.52,5.2,147.09,147.09,0,0,0-20.55,9.76,286.7,286.7,0,0,0-25.69,16.91q-12.33,9.1-24.14,19.51L2618.4,503.62a200.81,200.81,0,0,0-3.86,26,104.4,104.4,0,0,0,.26,19.51,17.35,17.35,0,0,0,8,13q6.94,4.54,18.75,5.85l-20.54-.65,7.7-.65h20.55l-4.11,19.51H2485.34l4.11-19.51h5.65q12.84.64,21.83-3.58a33.59,33.59,0,0,0,14.13-12,77.41,77.41,0,0,0,9.76-19.18,187.69,187.69,0,0,0,7.2-27l28.76-136.58a149.28,149.28,0,0,0,3.09-23.41,117.73,117.73,0,0,0-.52-19.51,20.35,20.35,0,0,0-8.22-13.33q-6.68-4.87-18.49-5.53l-8.22-1.3,4.11-19.51,81.68-14.31h37L2661,302q5.64-3.25,11.3-6.83t11.3-6.83a40.56,40.56,0,0,1,5.65-3.57c2.06-1.09,3.94-2.06,5.65-2.93a136.17,136.17,0,0,1,30.83-11.71,133.47,133.47,0,0,1,31.85-3.9l20.55-.65h5.14a117,117,0,0,1,12.84,3.25A60.32,60.32,0,0,1,2808,274a50.73,50.73,0,0,1,11,7.81,66.14,66.14,0,0,1,9,10.4,55.29,55.29,0,0,1,7.71,15,41,41,0,0,1,2.05,15.61q0,8.46-.77,17.56a126.05,126.05,0,0,1-3.34,19.51v-.65Z" transform="translate(-15.67 -18.6)"/><path class="cls-4" d="M3105.8,506.87l12.33,12.35A204.25,204.25,0,0,1,3089.61,553a143.47,143.47,0,0,1-30.56,22.11,126.16,126.16,0,0,1-32.11,12.36,149.71,149.71,0,0,1-34.17,3.9h-20.54q-28.77,0-49.58-10.4T2889,548.49q-12.84-21.47-15.16-50.73t5.4-65.68a284.42,284.42,0,0,1,22.35-66.34,214.63,214.63,0,0,1,36.73-53.33q21.57-22.76,47.26-34.46a132.14,132.14,0,0,1,55.49-11.71l20.55-.65q9.24.65,17.72,2a96.55,96.55,0,0,1,16.18,3.9,81.81,81.81,0,0,1,15.67,6.83A69.42,69.42,0,0,1,3125.32,289l1,.65,1,1.3a63.64,63.64,0,0,1,9.25,12,97.45,97.45,0,0,1,7.19,14.63,49.54,49.54,0,0,1,4.37,16.58,63.19,63.19,0,0,1-1.28,18.54,55.45,55.45,0,0,1-4.88,13.65,71.68,71.68,0,0,1-7.45,11.71,38.39,38.39,0,0,1-10.54,7.8,25,25,0,0,1-11,2.61l-20.55-.65a17.42,17.42,0,0,1-9.5-1.31,14.76,14.76,0,0,1-6.94-6.5,23.67,23.67,0,0,1-3.85-10.4,33.87,33.87,0,0,1,.77-12.36,13.9,13.9,0,0,0,.77-2.93,19,19,0,0,0,.25-2.92c.35-.87.78-1.85,1.29-2.93a20.6,20.6,0,0,0,1.28-3.58,3.59,3.59,0,0,1,.26-1.3l.77-1.95a5.22,5.22,0,0,0,.77-1.3,3.54,3.54,0,0,0,.26-1.3,8.62,8.62,0,0,1,.26-2.28,4.21,4.21,0,0,1,.77-1.62,3.49,3.49,0,0,1,.25-1.3,3.59,3.59,0,0,0,.26-1.3,30.58,30.58,0,0,0,.26-13,25.5,25.5,0,0,0-4.88-10.41,33.63,33.63,0,0,0-8.22-8.45,79,79,0,0,0-9.76-5.85,19.6,19.6,0,0,0-2.83-1,9.38,9.38,0,0,0-2.31-.32,8,8,0,0,0-2.31-1,11.39,11.39,0,0,0-2.83-.33h-1a67.83,67.83,0,0,0-24.14,10.09,72.44,72.44,0,0,0-20,20.48,237.86,237.86,0,0,0-19,32.84,251.23,251.23,0,0,0-13.87,36.1c-.68,1.73-1.28,3.47-1.79,5.2a26,26,0,0,1-1.8,4.55c-.35,1.74-.69,3.47-1,5.21s-.69,3.46-1,5.2a82.59,82.59,0,0,0-2.57,9.43c-.68,3.25-1.37,6.39-2.05,9.43a14.81,14.81,0,0,0-.77,2.6,13.49,13.49,0,0,0-.26,2.6,15.06,15.06,0,0,0-.77,2.6,13.56,13.56,0,0,0-.26,2.6A216.4,216.4,0,0,0,2952.7,487a161.77,161.77,0,0,0,6.17,41.3q4.62,16.9,15.67,26.66t28.51,11.71a81.51,81.51,0,0,0,20-5.2,79.38,79.38,0,0,0,19-11.06,244.79,244.79,0,0,0,21.58-19.18q10.78-10.74,21.58-23.09v-1.3Z" transform="translate(-15.67 -18.6)"/><path class="cls-3" d="M3400.26,398.26H3242l-8.22,33.17a11.84,11.84,0,0,1-.51,3.57,9.93,9.93,0,0,0-.51,2.93c-.35,1.73-.69,3.58-1,5.53s-.69,3.79-1,5.53a28.39,28.39,0,0,1-.26,3.9,30,30,0,0,0-.25,3.9v8.46q-.51,7.8-.26,15.6t.77,15q1,7.8,2.57,14.63a115,115,0,0,0,3.6,12.69,50.84,50.84,0,0,0,7.7,16.9,50.32,50.32,0,0,0,12.85,12.36,41.86,41.86,0,0,0,11.81,6.83,82.68,82.68,0,0,0,12.84,3.58,87.34,87.34,0,0,0,20.3-4.88,84.1,84.1,0,0,0,18.75-10.08A134.54,134.54,0,0,0,3342,529a197.52,197.52,0,0,0,19.27-25.36l20.55-.65,14.9,10.4a173.7,173.7,0,0,1-25.18,34.79,145.53,145.53,0,0,1-63.7,38.7,122.92,122.92,0,0,1-32.88,4.55h-20.55a126.75,126.75,0,0,1-24.4-2.27,134.94,134.94,0,0,1-21.83-6.18,88.4,88.4,0,0,1-19-13,77.1,77.1,0,0,1-15.41-19.51,122.52,122.52,0,0,1-17-50.73,214.79,214.79,0,0,1-1-29.59,220.42,220.42,0,0,1,3.08-29.59v-2.92a8,8,0,0,1,.51-2.93,13.32,13.32,0,0,0,.77-2.93,13.8,13.8,0,0,1,.77-2.92,266.7,266.7,0,0,1,21.58-64.39,209.45,209.45,0,0,1,36-52q21.06-22.76,46-34.14a135.07,135.07,0,0,1,53.69-12l20.55-.65q23.12.65,40.84,9.43t30.05,27q12.33,18.21,15.16,42.6t-3.86,54.95l-20.55-.65v-.65ZM3248.71,371.6h102.75a97.7,97.7,0,0,0,2.83-31.55q-1.29-14.62-6.94-25a52.69,52.69,0,0,0-12.07-14,38.28,38.28,0,0,0-16.19-7.47,57.37,57.37,0,0,0-20.55,8.12,100.27,100.27,0,0,0-19,15.94,176.13,176.13,0,0,0-18.75,25.69,111.25,111.25,0,0,0-12.08,28.94v-.65Z" transform="translate(-15.67 -18.6)"/></svg>