<svg id="Layer_1" data-name="Layer 1" xmlns="http://www.w3.org/2000/svg" viewBox="0 0 3548.73 578.42"><defs><style>.cls-1{fill:#fff;}.cls-2{fill:#e60315;}.cls-3{fill:#252021;}</style></defs><title>kenwood-light</title><path class="cls-1" d="M1368.11,553.87h-7.71c-21.24,0-42.49-.19-63.73.12-5.56.09-8.89-1.42-12.14-6.23q-79.59-118.08-159.62-235.86L981.93,101a40.54,40.54,0,0,0-5.37-6.68c-1,6.73-.73,13.47-.78,20.18,0,7,0,14,0,21V469.92q0,10.13,0,20.24,0,10.5,0,21v42.28H921.9V24.79h7.58c19,0,38,.2,57-.13,5.37-.1,8.52,1.63,11.53,6.05q99.65,146.13,199.55,292.09,55.62,81.36,111.25,162.71c1.4,2.06,2.87,4.07,4.24,6a6.74,6.74,0,0,0,.91-.21c.2-.09.51-.27.51-.41,0-154.95,0-309.91,0-465.95,18-.39,35.57-.07,53.64-.19Z" transform="translate(-35.76 -13.26)"/><path class="cls-1" d="M1648.5,461.27C1683,385.6,1717,310.93,1751.58,235,1786.1,310.13,1820,384,1854.72,459.63c61.38-146,122-290.35,182.7-434.62h56.64a7.26,7.26,0,0,1,.53.78c.11.21.31.49.24.65q-117.21,280.47-234.48,560.92a35,35,0,0,1-2.15,3.65L1751.6,355c-35.72,79.06-70.94,157-106.95,236.69L1407.9,26.1c5.39-1.6,45.57-2.09,58-.74Z" transform="translate(-35.76 -13.26)"/><path class="cls-1" d="M3155.69,23.15h8.6c53.48,0,107,.11,160.44,0C3390.38,23,3447.25,46,3496.42,88.59c38.51,33.39,65.16,74.61,79.13,123.83,9.14,32.18,10.48,64.93,7.54,98-3,33.84-10.75,66.49-24.23,97.69-19,44.05-46.79,81.22-86.68,108.62-33,22.67-69.63,34.75-109.62,35-67.72.46-135.45.13-203.17.13-1,0-2-.14-2.91-.21C3154.83,546,3154,44.19,3155.69,23.15ZM3210,504.53c2.17.18,3.64.4,5.1.41q67.85,0,135.68,0a142.71,142.71,0,0,0,54-10.86c49.84-20.29,84-56.49,105.18-105.26,16.34-37.57,21.74-77.25,19.75-117.91a195.93,195.93,0,0,0-18.34-74.42c-21.79-46.3-56.68-79.85-101.73-103.13-26.43-13.65-54.25-22.94-84.41-23.06-36.48-.13-73,0-109.45,0a54.64,54.64,0,0,0-5.76.59Z" transform="translate(-35.76 -13.26)"/><path class="cls-1" d="M2069.61,288.89c.76-63.37,19.33-126.07,61.35-180.75,33.9-44.13,77.15-75.21,131.77-88.37,60.63-14.61,117.62-4.41,170.09,29,48.39,30.82,81.62,74.37,103,127.21,22.76,56.36,28.27,114.75,17.58,174.36-11.72,65.42-40.82,121.83-91,166.35-32.29,28.64-69.7,47.45-112.39,54.49-51.1,8.42-99.45-.41-144.46-26.14-49.19-28.12-84-69.37-107.65-120.33C2078.64,383.32,2069.88,339.52,2069.61,288.89ZM2505,298.21c-.08-34.31-4.52-64.09-14.53-92.9-15-43.23-39.07-80.23-75.75-108.3-54.39-41.62-123.42-46.58-182.08-12.74-37.33,21.53-64.3,52.92-82.64,91.49-31.84,67-35.43,136-12.37,206.27,14.45,44,39.09,81.54,76.68,109.29,46.77,34.53,98.25,43.87,153.72,24.75,36.84-12.71,65.57-36.71,88.36-67.88C2489.84,402.44,2504.31,350.54,2505,298.21Z" transform="translate(-35.76 -13.26)"/><path class="cls-1" d="M2603.63,299.07c.81-73.74,19.51-136.39,61.5-191.06,33.57-43.7,76.41-74.61,130.36-87.95C2856.56,5,2914,15.14,2967,49c48.11,30.74,81.8,73.84,102.56,126.57,33,83.8,31.44,167.51-5.73,249.67-25.07,55.4-64.12,98.54-119,126q-59.55,29.82-125.82,20.82c-50.3-6.92-92.93-29.33-128.94-64.54-42.17-41.22-67.66-91.56-79.54-149a240.3,240.3,0,0,1-4.12-24.35C2604.94,320.74,2604.23,307.27,2603.63,299.07Zm435.53-1.88c.18-31.86-4.45-62-14.57-91.6-14.82-43.3-38.94-80.29-75.58-108.41-54.43-41.77-123.24-46.8-182-13-37.61,21.61-64.75,53.17-83.06,92-33.55,71.24-35.69,144.11-7.92,217.54,15.84,41.86,41.46,77,78.89,102.23,45.77,30.9,95.28,38.34,147.7,20,36.75-12.89,65.46-36.9,88.18-68.14C3024,402.18,3038.28,350.5,3039.16,297.19Z" transform="translate(-35.76 -13.26)"/><path class="cls-1" d="M539.5,256.61H820.11c1.51,5.57,1.85,35.81.53,46.84H539.45V506.73H844.74v46.69H484.65V25.26h360V71.85H539.5Z" transform="translate(-35.76 -13.26)"/><path class="cls-1" d="M94,276.12c-1.51-.52-2.61-3.12-4.65-.9v-4.08c.88.14,2.11.72,2.59.34,2.16-1.68,4.12-3.62,6.13-5.5Q224.77,147.85,351.39,29.65a16.65,16.65,0,0,1,12.57-5c19.74.26,39.49.1,59.24.1h6.29A5.57,5.57,0,0,1,430,26a1.16,1.16,0,0,1-.2.71,19.66,19.66,0,0,1-1.53,1.63L165.75,273.41a7.26,7.26,0,0,0-.61,1.27L446.36,553.2c-2.43.29-4,.64-5.56.65-20.24,0-40.49-.1-60.74.12-4.14,0-6.92-1.4-9.76-4.21Q236.52,417.37,102.6,285.1c-1.06-1-2-2.24-2.93-3.37l-1.14-1.13-.34-.34L97,279.1l-.32-.32L95.5,277.6l-.31-.31Z" transform="translate(-35.76 -13.26)"/><path class="cls-1" d="M89.36,271.14v4.08c.17,2.47.48,4.95.48,7.42q0,131.6,0,263.2v7.7H35.76V26c4.82-1.49,44.14-1.91,53.77-.42.11,2.07.31,4.25.31,6.43q0,116.6,0,233.2C89.84,267.19,89.53,269.16,89.36,271.14Z" transform="translate(-35.76 -13.26)"/><path class="cls-2" d="M1751.59,218.91C1722.47,153.69,1694,89.8,1665.08,25.15h173Z" transform="translate(-35.76 -13.26)"/><path class="cls-3" d="M94,276.12l1.18,1.17Z" transform="translate(-35.76 -13.26)"/><path class="cls-3" d="M95.5,277.6l1.19,1.18Z" transform="translate(-35.76 -13.26)"/><path class="cls-3" d="M97,279.1l1.18,1.16Z" transform="translate(-35.76 -13.26)"/><path class="cls-3" d="M98.53,280.6l1.14,1.13Z" transform="translate(-35.76 -13.26)"/></svg>